<mxfile host="app.diagrams.net" agent="Mozilla/5.0 (Windows NT 10.0; Win64; x64) AppleWebKit/537.36 (KHTML, like Gecko) Chrome/109.0.0.0 Safari/537.36" version="28.1.0">
  <diagram id="7ac91c9_CYBIp-0gwyT7" name="Страница 1">
    <mxGraphModel grid="1" page="1" gridSize="10" guides="1" tooltips="1" connect="1" arrows="1" fold="1" pageScale="1" pageWidth="827" pageHeight="1169" math="0" shadow="0">
      <root>
        <mxCell id="0" />
        <mxCell id="1" parent="0" />
        <mxCell id="g7hA280cSHpAfKu-B-t--3" value="" style="shape=umlLifeline;participant=umlActor;perimeter=lifelinePerimeter;whiteSpace=wrap;html=1;container=1;collapsible=0;recursiveResize=0;verticalAlign=top;spacingTop=36;outlineConnect=0;fontSize=25;" vertex="1" parent="1">
          <mxGeometry x="40" y="4860" width="20" height="860" as="geometry" />
        </mxCell>
        <mxCell id="g7hA280cSHpAfKu-B-t--5" value="Web Server" style="shape=umlLifeline;perimeter=lifelinePerimeter;whiteSpace=wrap;html=1;container=1;collapsible=0;recursiveResize=0;outlineConnect=0;fontSize=25;" vertex="1" parent="1">
          <mxGeometry x="490" y="4860" width="150" height="860" as="geometry" />
        </mxCell>
        <mxCell id="g7hA280cSHpAfKu-B-t--9" value="Series Server" style="shape=umlLifeline;perimeter=lifelinePerimeter;whiteSpace=wrap;html=1;container=1;collapsible=0;recursiveResize=0;outlineConnect=0;fontSize=25;" vertex="1" parent="1">
          <mxGeometry x="995" y="4860" width="160" height="860" as="geometry" />
        </mxCell>
        <mxCell id="g7hA280cSHpAfKu-B-t--18" value="UI: Otium" style="shape=umlLifeline;perimeter=lifelinePerimeter;whiteSpace=wrap;html=1;container=1;collapsible=0;recursiveResize=0;outlineConnect=0;fontSize=25;" vertex="1" parent="1">
          <mxGeometry x="235" y="4860" width="150" height="860" as="geometry" />
        </mxCell>
        <mxCell id="g7hA280cSHpAfKu-B-t--42" value="Films Server" style="shape=umlLifeline;perimeter=lifelinePerimeter;whiteSpace=wrap;html=1;container=1;collapsible=0;recursiveResize=0;outlineConnect=0;fontSize=25;" vertex="1" parent="1">
          <mxGeometry x="740" y="4860" width="160" height="860" as="geometry" />
        </mxCell>
        <mxCell id="1uU_ahRgcNST_INC9oEk-1" value="обработать данные и&lt;br&gt;сортировку" style="edgeStyle=orthogonalEdgeStyle;html=1;align=left;spacingLeft=2;endArrow=block;rounded=0;entryX=1;entryY=0;" edge="1" parent="1">
          <mxGeometry relative="1" as="geometry">
            <mxPoint x="570" y="5280" as="sourcePoint" />
            <Array as="points">
              <mxPoint x="610" y="5280" />
              <mxPoint x="610" y="5300" />
            </Array>
            <mxPoint x="575" y="5300" as="targetPoint" />
          </mxGeometry>
        </mxCell>
        <mxCell id="1uU_ahRgcNST_INC9oEk-2" value="" style="html=1;points=[[0,0,0,0,5],[0,1,0,0,-5],[1,0,0,0,5],[1,1,0,0,-5]];perimeter=orthogonalPerimeter;outlineConnect=0;targetShapes=umlLifeline;portConstraint=eastwest;newEdgeStyle={&quot;curved&quot;:0,&quot;rounded&quot;:0};" vertex="1" parent="1">
          <mxGeometry x="565" y="5300" width="10" height="40" as="geometry" />
        </mxCell>
        <mxCell id="1uU_ahRgcNST_INC9oEk-3" value="" style="html=1;points=[];perimeter=orthogonalPerimeter;fontFamily=Helvetica;fontSize=25;fontColor=default;align=center;strokeColor=default;fillColor=default;" vertex="1" parent="1">
          <mxGeometry x="305" y="5000" width="10" height="540" as="geometry" />
        </mxCell>
        <mxCell id="1uU_ahRgcNST_INC9oEk-4" value="рейтинг фильмов от кинокритиков &lt;br&gt;(с сортировкой)" style="html=1;verticalAlign=bottom;startArrow=none;endArrow=open;startSize=8;rounded=1;startFill=0;endFill=0;dashed=1;" edge="1" parent="1">
          <mxGeometry x="0.102" relative="1" as="geometry">
            <mxPoint x="565" y="5370" as="sourcePoint" />
            <mxPoint x="320" y="5370" as="targetPoint" />
            <mxPoint as="offset" />
          </mxGeometry>
        </mxCell>
        <mxCell id="1uU_ahRgcNST_INC9oEk-5" value="рейтинг фильмов от кинокритиков &lt;br&gt;(с сортировкой)" style="html=1;verticalAlign=bottom;startArrow=none;endArrow=open;startSize=8;rounded=1;startFill=0;endFill=0;dashed=1;entryX=0.5;entryY=0.877;entryDx=0;entryDy=0;entryPerimeter=0;" edge="1" parent="1">
          <mxGeometry x="0.1373" relative="1" as="geometry">
            <mxPoint x="305" y="5460" as="sourcePoint" />
            <mxPoint x="50" y="5460" as="targetPoint" />
            <mxPoint as="offset" />
          </mxGeometry>
        </mxCell>
        <mxCell id="1uU_ahRgcNST_INC9oEk-6" value="Запрос рейтинга фильмов от кинокритиков&lt;br&gt;(с сортировкой)" style="html=1;verticalAlign=bottom;startArrow=none;startFill=0;endArrow=block;startSize=8;rounded=1;fontSize=14;entryX=0.069;entryY=-0.001;entryDx=0;entryDy=0;entryPerimeter=0;" edge="1" parent="1">
          <mxGeometry width="60" relative="1" as="geometry">
            <mxPoint x="60" y="5001" as="sourcePoint" />
            <mxPoint x="316" y="5000" as="targetPoint" />
          </mxGeometry>
        </mxCell>
        <mxCell id="1uU_ahRgcNST_INC9oEk-7" value="&lt;span style=&quot;background-color: rgb(255, 255, 255); font-size: 13px;&quot;&gt;&lt;font style=&quot;font-size: 13px;&quot;&gt;&lt;span style=&quot;font-family: Inter, system-ui, -apple-system, &amp;quot;system-ui&amp;quot;, &amp;quot;Segoe UI&amp;quot;, Roboto, Oxygen, Ubuntu, Cantarell, &amp;quot;Fira Sans&amp;quot;, &amp;quot;Droid Sans&amp;quot;, Helvetica, Arial, sans-serif; text-align: left;&quot; data-testid=&quot;resolvedVariable&quot; spellcheck=&quot;false&quot; class=&quot;resolvedVariable&quot;&gt;GET {{WebServer}}&lt;/span&gt;&lt;span style=&quot;font-family: Inter, system-ui, -apple-system, &amp;quot;system-ui&amp;quot;, &amp;quot;Segoe UI&amp;quot;, Roboto, Oxygen, Ubuntu, Cantarell, &amp;quot;Fira Sans&amp;quot;, &amp;quot;Droid Sans&amp;quot;, Helvetica, Arial, sans-serif; text-align: left;&quot; data-testid=&quot;resolvedVariable&quot; spellcheck=&quot;false&quot; class=&quot;resolvedVariable&quot;&gt;/content&lt;/span&gt;&lt;/font&gt;&lt;span style=&quot;font-family: Inter, system-ui, -apple-system, &amp;quot;system-ui&amp;quot;, &amp;quot;Segoe UI&amp;quot;, Roboto, Oxygen, Ubuntu, Cantarell, &amp;quot;Fira Sans&amp;quot;, &amp;quot;Droid Sans&amp;quot;, Helvetica, Arial, sans-serif; text-align: left;&quot; data-offset-key=&quot;a3p1t-1-0&quot;&gt;&lt;span style=&quot;&quot; data-text=&quot;true&quot;&gt;/details&lt;/span&gt;&lt;/span&gt;&lt;/span&gt;" style="html=1;verticalAlign=bottom;startArrow=none;endArrow=block;startSize=8;rounded=1;fontSize=25;entryX=-0.044;entryY=0.001;entryDx=0;entryDy=0;entryPerimeter=0;startFill=0;" edge="1" parent="1">
          <mxGeometry x="-0.005" relative="1" as="geometry">
            <mxPoint x="320" y="5030" as="sourcePoint" />
            <mxPoint as="offset" />
            <mxPoint x="565" y="5030" as="targetPoint" />
          </mxGeometry>
        </mxCell>
        <mxCell id="1uU_ahRgcNST_INC9oEk-8" value="par" style="shape=umlFrame;whiteSpace=wrap;html=1;" vertex="1" parent="1">
          <mxGeometry x="485" y="5050" width="670" height="220" as="geometry" />
        </mxCell>
        <mxCell id="1uU_ahRgcNST_INC9oEk-9" value="" style="html=1;points=[];perimeter=orthogonalPerimeter;fontFamily=Helvetica;fontSize=25;fontColor=default;align=center;strokeColor=default;fillColor=default;" vertex="1" parent="1">
          <mxGeometry x="560" y="5030" width="10" height="340" as="geometry" />
        </mxCell>
        <mxCell id="1uU_ahRgcNST_INC9oEk-10" value="&lt;span style=&quot;background-color: rgb(255, 255, 255); font-size: 14px;&quot;&gt;&lt;font style=&quot;font-size: 14px;&quot;&gt;&lt;span style=&quot;font-family: Inter, system-ui, -apple-system, &amp;quot;system-ui&amp;quot;, &amp;quot;Segoe UI&amp;quot;, Roboto, Oxygen, Ubuntu, Cantarell, &amp;quot;Fira Sans&amp;quot;, &amp;quot;Droid Sans&amp;quot;, Helvetica, Arial, sans-serif; text-align: left;&quot; data-testid=&quot;resolvedVariable&quot; spellcheck=&quot;false&quot; class=&quot;resolvedVariable&quot;&gt;GET {{FilmsServer}}&lt;/span&gt;&lt;span style=&quot;font-family: Inter, system-ui, -apple-system, &amp;quot;system-ui&amp;quot;, &amp;quot;Segoe UI&amp;quot;, Roboto, Oxygen, Ubuntu, Cantarell, &amp;quot;Fira Sans&amp;quot;, &amp;quot;Droid Sans&amp;quot;, Helvetica, Arial, sans-serif; text-align: left;&quot; data-testid=&quot;resolvedVariable&quot; spellcheck=&quot;false&quot; class=&quot;resolvedVariable&quot;&gt;/films&lt;/span&gt;&lt;/font&gt;&lt;/span&gt;" style="html=1;verticalAlign=bottom;startArrow=none;endArrow=block;startSize=8;rounded=1;fontSize=25;entryX=-0.044;entryY=0.001;entryDx=0;entryDy=0;entryPerimeter=0;startFill=0;" edge="1" parent="1">
          <mxGeometry x="-0.001" relative="1" as="geometry">
            <mxPoint x="570" y="5080" as="sourcePoint" />
            <mxPoint x="815" y="5080" as="targetPoint" />
            <mxPoint as="offset" />
          </mxGeometry>
        </mxCell>
        <mxCell id="1uU_ahRgcNST_INC9oEk-11" value="" style="html=1;points=[];perimeter=orthogonalPerimeter;fontFamily=Helvetica;fontSize=25;fontColor=default;align=center;strokeColor=default;fillColor=default;" vertex="1" parent="1">
          <mxGeometry x="817" y="5080" width="10" height="50" as="geometry" />
        </mxCell>
        <mxCell id="1uU_ahRgcNST_INC9oEk-12" value="" style="html=1;points=[];perimeter=orthogonalPerimeter;fontFamily=Helvetica;fontSize=25;fontColor=default;align=center;strokeColor=default;fillColor=default;" vertex="1" parent="1">
          <mxGeometry x="1070" y="5170" width="10" height="50" as="geometry" />
        </mxCell>
        <mxCell id="1uU_ahRgcNST_INC9oEk-13" value="&lt;span style=&quot;background-color: rgb(255, 255, 255); font-size: 14px;&quot;&gt;&lt;font style=&quot;font-size: 14px;&quot;&gt;&lt;span style=&quot;font-family: Inter, system-ui, -apple-system, &amp;quot;system-ui&amp;quot;, &amp;quot;Segoe UI&amp;quot;, Roboto, Oxygen, Ubuntu, Cantarell, &amp;quot;Fira Sans&amp;quot;, &amp;quot;Droid Sans&amp;quot;, Helvetica, Arial, sans-serif; text-align: left;&quot; data-testid=&quot;resolvedVariable&quot; spellcheck=&quot;false&quot; class=&quot;resolvedVariable&quot;&gt;GET {{SeriesServer}}&lt;/span&gt;&lt;span style=&quot;font-family: Inter, system-ui, -apple-system, &amp;quot;system-ui&amp;quot;, &amp;quot;Segoe UI&amp;quot;, Roboto, Oxygen, Ubuntu, Cantarell, &amp;quot;Fira Sans&amp;quot;, &amp;quot;Droid Sans&amp;quot;, Helvetica, Arial, sans-serif; text-align: left;&quot; data-testid=&quot;resolvedVariable&quot; spellcheck=&quot;false&quot; class=&quot;resolvedVariable&quot;&gt;/series&lt;/span&gt;&lt;/font&gt;&lt;/span&gt;" style="html=1;verticalAlign=bottom;startArrow=none;endArrow=block;startSize=8;rounded=1;fontSize=25;entryX=-0.044;entryY=0.001;entryDx=0;entryDy=0;entryPerimeter=0;startFill=0;exitX=0.933;exitY=0.468;exitDx=0;exitDy=0;exitPerimeter=0;" edge="1" parent="1">
          <mxGeometry x="-0.001" relative="1" as="geometry">
            <mxPoint x="571.5" y="5170" as="sourcePoint" />
            <mxPoint x="1072.5" y="5170.87" as="targetPoint" />
            <mxPoint as="offset" />
          </mxGeometry>
        </mxCell>
        <mxCell id="1uU_ahRgcNST_INC9oEk-14" value="&lt;div style=&quot;text-align: left;&quot;&gt;&lt;font face=&quot;Inter, system-ui, -apple-system, system-ui, Segoe UI, Roboto, Oxygen, Ubuntu, Cantarell, Fira Sans, Droid Sans, Helvetica, Arial, sans-serif&quot;&gt;&lt;span style=&quot;font-size: 14px;&quot;&gt;детальное описание фильма по id&lt;/span&gt;&lt;/font&gt;&lt;/div&gt;" style="html=1;verticalAlign=bottom;startArrow=none;endArrow=open;startSize=8;rounded=1;fontSize=25;startFill=0;endFill=0;dashed=1;entryX=1.067;entryY=0.35;entryDx=0;entryDy=0;entryPerimeter=0;exitX=0.186;exitY=0.996;exitDx=0;exitDy=0;exitPerimeter=0;" edge="1" parent="1">
          <mxGeometry x="-0.001" relative="1" as="geometry">
            <mxPoint x="817" y="5131" as="sourcePoint" />
            <mxPoint x="571" y="5130" as="targetPoint" />
            <mxPoint as="offset" />
          </mxGeometry>
        </mxCell>
        <mxCell id="1uU_ahRgcNST_INC9oEk-15" value="&lt;div style=&quot;text-align: left;&quot;&gt;&lt;font face=&quot;Inter, system-ui, -apple-system, system-ui, Segoe UI, Roboto, Oxygen, Ubuntu, Cantarell, Fira Sans, Droid Sans, Helvetica, Arial, sans-serif&quot;&gt;&lt;span style=&quot;font-size: 14px;&quot;&gt;детальное описание фильма по id&lt;/span&gt;&lt;/font&gt;&lt;/div&gt;" style="html=1;verticalAlign=bottom;startArrow=none;endArrow=open;startSize=8;rounded=1;fontSize=25;startFill=0;endFill=0;dashed=1;entryX=1.067;entryY=0.35;entryDx=0;entryDy=0;entryPerimeter=0;exitX=0.333;exitY=0.987;exitDx=0;exitDy=0;exitPerimeter=0;" edge="1" parent="1" source="1uU_ahRgcNST_INC9oEk-12">
          <mxGeometry x="-0.001" relative="1" as="geometry">
            <mxPoint x="816" y="5221" as="sourcePoint" />
            <mxPoint x="570" y="5220" as="targetPoint" />
            <mxPoint as="offset" />
          </mxGeometry>
        </mxCell>
      </root>
    </mxGraphModel>
  </diagram>
</mxfile>
